<?xml version="1.0" standalone="no"?>
<!DOCTYPE svg PUBLIC "-//W3C//DTD SVG 20010904//EN"
 "http://www.w3.org/TR/2001/REC-SVG-20010904/DTD/svg10.dtd">
<svg version="1.0" xmlns="http://www.w3.org/2000/svg"
 width="1000.000000pt" height="1000.000000pt" viewBox="0 0 1000.000000 1000.000000"
 preserveAspectRatio="xMidYMid meet">
<metadata>
Created by potrace 1.14, written by Peter Selinger 2001-2017
</metadata>
<g transform="translate(0.000000,1000.000000) scale(0.100000,-0.100000)"
fill="#000000" stroke="none">
<path d="M4980 8425 c-14 -8 -32 -17 -40 -21 -116 -51 -167 -98 -217 -202 -57
-119 -56 -232 4 -303 29 -34 94 -68 131 -69 22 0 22 -2 23 -127 1 -143 2 -164
25 -418 l7 -79 -62 53 c-33 29 -72 67 -86 84 -14 18 -31 39 -38 47 -9 10 -11
24 -6 40 34 119 -40 258 -155 289 -101 28 -195 15 -248 -36 -66 -63 -90 -198
-49 -283 29 -62 69 -85 179 -106 88 -17 94 -19 108 -50 9 -18 64 -77 122 -131
58 -54 129 -119 157 -145 27 -26 53 -48 57 -48 4 0 8 -145 8 -322 0 -178 2
-335 4 -350 2 -16 0 -28 -4 -28 -3 0 -26 24 -49 53 -48 59 -92 106 -301 327
-81 85 -176 186 -211 225 -100 108 -368 377 -427 427 -47 40 -52 47 -43 70 14
36 6 112 -16 155 -24 48 -100 100 -158 108 -150 23 -271 -147 -206 -290 23
-50 66 -88 128 -111 26 -10 52 -24 56 -31 4 -7 50 -46 101 -87 83 -67 184
-164 276 -266 18 -19 86 -90 151 -157 65 -68 119 -125 119 -128 0 -3 -57 -4
-127 -1 -96 3 -141 9 -180 24 -95 36 -270 187 -583 502 -281 283 -275 276
-294 342 -33 116 -162 221 -273 222 -43 1 -58 -4 -90 -30 -21 -17 -51 -57 -67
-88 -24 -47 -30 -71 -32 -137 -5 -134 38 -219 133 -265 73 -35 172 -40 217
-11 15 10 29 17 32 15 2 -2 70 -69 151 -148 81 -79 213 -207 293 -285 151
-147 219 -206 282 -244 l38 -23 -57 -46 c-171 -139 -248 -196 -342 -253 -120
-72 -176 -125 -191 -179 -12 -43 -3 -73 29 -107 12 -12 21 -27 21 -33 0 -13 8
-13 61 3 72 22 523 334 656 454 28 26 60 50 70 54 18 8 131 3 208 -8 22 -3 94
-6 160 -8 l120 -3 43 -48 c89 -99 189 -221 251 -307 l63 -89 -7 -166 c-3 -92
-8 -185 -10 -207 -2 -22 -6 -83 -10 -135 -3 -52 -7 -117 -10 -145 -2 -27 -6
-87 -10 -133 -5 -68 -11 -90 -33 -121 -15 -21 -38 -45 -52 -53 -14 -8 -71 -77
-127 -154 l-101 -139 -114 -4 c-239 -8 -756 -6 -823 4 -70 9 -311 11 -835 4
-151 -1 -290 0 -309 3 -70 13 -131 -39 -131 -112 0 -67 39 -94 170 -116 73
-12 321 -11 360 1 11 3 20 2 20 -3 0 -12 -99 -112 -166 -166 l-57 -47 -26 24
c-77 71 -164 100 -229 78 -86 -31 -134 -112 -135 -231 -1 -130 46 -219 137
-265 118 -59 259 -7 323 119 15 30 367 383 417 419 14 10 29 32 34 50 l8 32
120 -2 c135 -3 256 -10 359 -20 72 -8 452 -7 605 1 l85 4 -55 -50 c-30 -27
-111 -95 -180 -149 -69 -55 -132 -105 -140 -112 -8 -7 -64 -50 -125 -96 -199
-153 -344 -273 -440 -365 -16 -16 -51 -46 -76 -66 -42 -33 -55 -38 -122 -43
-184 -14 -297 -132 -297 -310 0 -82 17 -130 63 -183 123 -139 316 -99 412 87
13 25 40 56 59 70 20 13 41 36 47 51 12 29 4 80 -17 113 -16 24 -16 24 91 100
272 192 494 368 670 534 33 31 125 111 205 177 161 134 154 128 234 204 54 51
56 53 39 20 -34 -62 -84 -191 -130 -335 -31 -96 -66 -179 -113 -265 -91 -167
-214 -411 -274 -540 -27 -57 -73 -140 -102 -183 -30 -44 -54 -83 -54 -88 0 -5
-9 -9 -21 -9 -11 0 -41 -8 -67 -19 -26 -10 -66 -24 -89 -30 -29 -8 -54 -25
-81 -56 -71 -81 -88 -193 -43 -288 11 -23 31 -67 44 -98 78 -179 329 -137 426
71 22 47 26 68 25 143 l-1 87 46 53 c44 51 83 99 115 142 14 19 15 18 9 -17
-7 -45 26 -118 64 -143 43 -28 117 -23 166 12 131 91 104 262 -43 287 -33 5
-96 -17 -123 -43 -15 -14 -5 16 34 94 31 63 73 168 93 232 66 207 205 543 225
543 3 0 7 -125 9 -278 2 -152 5 -419 6 -592 2 -173 7 -340 11 -370 l6 -55 -36
-20 c-72 -38 -124 -143 -129 -260 -6 -133 28 -217 117 -291 111 -92 161 -112
237 -92 113 30 192 154 192 299 0 84 -31 151 -89 194 -25 18 -41 38 -41 50 1
11 -6 54 -15 95 -24 112 -26 176 -33 760 -3 294 -7 591 -9 660 l-3 125 33 -65
c19 -36 61 -128 95 -205 34 -77 66 -148 71 -157 5 -10 9 -22 9 -28 0 -5 16
-45 36 -87 20 -43 47 -105 60 -138 14 -33 31 -73 38 -90 113 -257 144 -323
183 -391 25 -43 65 -103 87 -133 73 -96 70 -88 57 -119 -12 -29 -16 -119 -7
-161 9 -42 53 -97 92 -116 121 -57 282 20 355 172 57 119 17 243 -96 294 -47
22 -77 23 -127 5 l-38 -13 -39 51 c-85 111 -143 222 -249 478 -34 81 -75 175
-91 210 -16 35 -46 106 -66 158 -21 52 -62 147 -93 210 -96 204 -161 350 -153
350 4 0 40 -34 80 -75 72 -73 181 -174 251 -231 19 -16 37 -31 40 -35 26 -30
526 -418 705 -546 55 -40 121 -94 148 -120 l47 -49 -8 -59 c-20 -148 40 -241
167 -260 136 -20 274 162 274 361 0 134 -65 222 -172 231 -37 4 -57 -1 -104
-27 l-58 -31 -48 43 c-48 43 -82 69 -411 316 -96 72 -189 143 -206 159 -18 15
-85 72 -150 125 -66 54 -139 116 -164 138 l-45 39 80 1 c180 2 679 16 949 26
l161 6 40 -32 c43 -34 131 -89 265 -165 47 -26 99 -59 117 -72 28 -22 31 -28
22 -50 -42 -112 4 -258 97 -303 77 -38 153 -19 225 57 95 99 121 223 63 305
-39 56 -98 95 -153 102 -25 3 -47 10 -50 15 -3 5 -57 43 -120 85 -63 42 -113
76 -110 76 104 12 475 18 619 10 79 -5 104 3 128 38 37 52 31 127 -11 154 -47
31 -117 39 -317 38 -113 -1 -225 -3 -250 -5 -25 -1 -112 -6 -195 -9 -277 -13
-330 -16 -400 -21 -38 -3 -178 -7 -310 -10 -132 -3 -328 -8 -435 -12 -314 -10
-511 -7 -633 11 -23 3 -170 187 -203 254 -15 32 -27 75 -29 107 -2 30 -9 63
-15 75 -6 12 -9 46 -6 83 25 312 36 508 40 695 3 113 6 135 22 154 10 13 63
70 116 128 l97 106 46 -2 c27 -1 87 11 152 32 60 18 142 43 183 55 41 12 81
24 87 26 7 3 18 -6 24 -20 6 -13 27 -32 46 -41 50 -24 164 -116 273 -221 240
-232 365 -304 448 -261 45 23 55 47 68 156 12 99 -90 169 -186 127 -16 -7 -20
-4 -200 164 -58 54 -134 121 -170 150 -36 28 -67 53 -69 55 -1 1 25 20 59 41
145 88 341 243 549 432 68 62 90 76 117 76 91 2 154 127 108 216 l-15 30 27
-18 c41 -26 165 -24 219 4 82 43 88 53 96 161 5 53 11 109 15 124 4 18 1 36
-8 50 -8 13 -18 36 -22 52 -24 99 -146 154 -241 108 -16 -8 -37 -20 -45 -27
-8 -7 -27 -15 -42 -19 -33 -8 -94 -59 -112 -95 -25 -47 -27 -105 -6 -146 11
-21 27 -60 35 -86 9 -26 23 -53 31 -59 23 -20 16 -26 -25 -22 -49 5 -114 -29
-187 -96 -401 -371 -694 -577 -848 -597 -27 -3 -53 -8 -56 -10 -4 -2 -25 -8
-48 -14 l-42 -9 78 86 c89 99 72 81 227 247 187 201 188 202 228 209 50 9 95
65 88 109 0 4 9 7 21 7 13 0 29 4 37 9 22 14 4 28 -30 23 -43 -6 -30 14 14 22
44 8 106 61 128 110 25 57 17 124 -27 210 -38 76 -74 116 -104 116 -10 0 -22
5 -25 10 -10 16 -93 12 -131 -6 -44 -21 -108 -92 -136 -151 -32 -67 -33 -178
-1 -221 l22 -30 -67 -68 c-37 -38 -106 -111 -152 -163 l-86 -93 -2 38 c-4 56
-47 112 -107 141 -83 38 -144 29 -211 -30 -90 -79 -117 -187 -68 -264 32 -48
79 -73 152 -82 l52 -6 -52 -61 c-29 -33 -75 -86 -103 -118 -27 -32 -57 -67
-67 -78 -9 -10 -40 -48 -70 -84 -29 -36 -65 -80 -80 -97 l-28 -32 -1 85 c-6
353 -4 589 5 618 5 19 24 48 40 66 98 101 203 222 213 245 6 14 10 36 8 48 -3
20 -1 21 21 12 97 -36 260 35 304 134 39 87 -25 245 -124 307 -47 28 -110 40
-154 28 -45 -12 -108 -74 -118 -114 -3 -16 -15 -44 -26 -62 -26 -43 -32 -109
-15 -160 14 -41 14 -42 -9 -42 -42 0 -74 -19 -106 -65 -17 -24 -33 -44 -34
-42 -1 1 -5 38 -8 82 -4 44 -9 103 -12 130 -3 28 -7 104 -8 169 -3 111 -2 121
20 154 32 47 34 93 7 145 -13 25 -13 30 1 40 8 7 26 35 40 62 21 42 24 62 22
120 -2 41 -9 82 -19 100 -9 17 -25 51 -36 77 -10 25 -30 54 -44 62 -34 23 -88
28 -117 11z"/>
<path d="M4114 8220 c-115 -52 -190 -198 -150 -293 21 -50 92 -134 141 -166
34 -22 51 -25 108 -25 59 1 73 5 105 31 131 104 109 351 -40 436 -58 33 -116
39 -164 17z"/>
<path d="M5760 8219 c-99 -30 -131 -50 -162 -98 -77 -122 -30 -266 101 -311
36 -12 64 -15 92 -10 22 4 59 5 83 3 74 -9 136 42 136 110 0 14 6 40 13 58 33
83 -9 179 -105 237 -50 30 -86 33 -158 11z"/>
<path d="M6556 8125 c-97 -34 -169 -139 -170 -244 0 -112 58 -161 201 -168 96
-5 134 8 187 67 77 85 66 202 -27 292 -58 56 -128 76 -191 53z"/>
<path d="M3333 8111 c-89 -34 -144 -117 -144 -215 0 -109 65 -194 166 -217 80
-18 102 -8 172 72 6 8 23 25 38 38 38 35 58 79 57 128 -2 99 -105 201 -211
208 -20 2 -55 -4 -78 -14z"/>
<path d="M4433 7059 c-96 -61 -81 -264 26 -334 72 -48 177 -45 236 6 71 62 64
183 -16 274 -64 72 -178 98 -246 54z"/>
<path d="M2430 6932 c-62 -33 -97 -68 -116 -119 -32 -82 -20 -188 30 -263 34
-51 106 -85 240 -112 107 -21 109 -21 144 -2 42 22 67 74 57 118 -3 17 -7 78
-8 136 -2 120 -15 149 -92 207 -85 66 -173 78 -255 35z"/>
<path d="M7392 6870 c-208 -68 -257 -321 -80 -411 101 -52 225 -15 292 85 67
101 70 208 7 280 -43 49 -143 70 -219 46z"/>
<path d="M3127 6725 c-96 -24 -180 -145 -179 -255 1 -53 24 -101 72 -154 108
-116 277 -89 352 57 89 176 -65 398 -245 352z"/>
<path d="M6830 6710 c-8 -5 -34 -10 -58 -10 -95 0 -171 -82 -173 -188 -3 -100
26 -140 137 -193 47 -21 96 -39 110 -39 99 0 196 122 202 255 3 65 1 73 -26
111 -16 22 -46 48 -65 57 -39 19 -104 22 -127 7z"/>
<path d="M2515 6186 c-21 -9 -38 -9 -56 -2 -41 15 -108 -15 -139 -62 -76 -113
18 -331 177 -408 169 -83 358 36 358 226 0 100 -53 178 -158 232 -48 24 -140
31 -182 14z"/>
<path d="M7340 6170 c-46 -8 -112 -46 -130 -73 -23 -38 -70 -180 -70 -215 0
-118 127 -201 266 -174 99 20 180 78 224 162 20 38 16 129 -8 176 -45 89 -169
143 -282 124z"/>
<path d="M4080 5848 c-64 -18 -123 -71 -159 -143 -69 -139 -53 -270 40 -332
38 -25 51 -28 123 -28 89 0 147 22 195 73 66 72 85 206 42 296 -49 100 -153
158 -241 134z"/>
<path d="M5812 5826 c-172 -59 -207 -325 -55 -430 55 -38 163 -48 223 -21 107
48 156 249 87 354 -54 81 -171 125 -255 97z"/>
<path d="M3400 5588 c-153 -42 -230 -312 -122 -431 56 -62 173 -64 234 -4 7 7
33 21 57 31 103 40 132 84 113 172 -34 165 -157 266 -282 232z"/>
<path d="M2795 5582 c-32 -11 -60 -34 -80 -67 -11 -16 -30 -40 -43 -52 -54
-53 -69 -151 -33 -220 29 -59 85 -93 158 -100 50 -4 65 -1 113 24 107 57 138
184 74 303 -44 82 -129 132 -189 112z"/>
<path d="M6535 5546 c-16 -7 -45 -16 -64 -19 -47 -10 -97 -50 -122 -99 -25
-50 -31 -131 -13 -175 23 -55 137 -133 194 -133 33 0 93 35 138 82 80 81 100
162 63 243 -18 40 -81 104 -104 106 -7 1 -23 3 -37 4 -14 2 -38 -2 -55 -9z"/>
<path d="M7135 5550 c-96 -21 -147 -94 -148 -211 0 -55 4 -75 27 -113 49 -83
147 -123 225 -90 107 45 150 162 107 296 -23 72 -59 107 -117 114 -24 2 -48 6
-54 8 -5 1 -23 0 -40 -4z"/>
<path d="M3245 4135 c-5 -2 -22 -6 -36 -9 -36 -8 -85 -61 -102 -110 -26 -79
-2 -178 54 -219 60 -43 160 -39 213 11 109 102 73 276 -67 317 -28 8 -51 15
-51 14 -1 0 -5 -2 -11 -4z"/>
<path d="M6565 4096 c-70 -30 -134 -108 -139 -168 -8 -98 78 -196 160 -182 86
14 169 128 167 228 -1 64 -14 91 -56 116 -37 23 -89 25 -132 6z"/>
<path d="M5943 3459 c-84 -42 -127 -150 -86 -219 22 -38 86 -72 133 -72 82 1
162 71 174 153 4 26 -1 48 -17 79 -39 76 -121 100 -204 59z"/>
<path d="M3865 3462 c-100 -34 -151 -177 -95 -267 56 -90 215 -84 279 10 30
44 36 126 14 169 -36 70 -129 111 -198 88z"/>
<path d="M5355 3132 c-11 -2 -28 -11 -39 -21 -18 -15 -30 -32 -92 -125 -77
-115 7 -284 134 -270 50 6 88 30 121 77 34 50 53 131 38 168 -5 13 -13 45 -18
72 -8 50 -19 66 -59 87 -28 15 -55 19 -85 12z"/>
</g>
</svg>
