<?xml version="1.0" standalone="no"?>
<!DOCTYPE svg PUBLIC "-//W3C//DTD SVG 20010904//EN"
 "http://www.w3.org/TR/2001/REC-SVG-20010904/DTD/svg10.dtd">
<svg version="1.0" xmlns="http://www.w3.org/2000/svg"
 width="2100.000000pt" height="2100.000000pt" viewBox="0 0 2100.000000 2100.000000"
 preserveAspectRatio="xMidYMid meet">
<metadata>
Created by potrace 1.14, written by Peter Selinger 2001-2017
</metadata>
<g transform="translate(0.000000,2100.000000) scale(0.100000,-0.100000)"
fill="#000000" stroke="none">
<path d="M12705 15771 c-27 -4 -56 -10 -63 -15 -7 -4 -48 -10 -90 -12 -104 -5
-192 -13 -220 -18 -21 -5 -83 -7 -122 -5 -8 0 -53 0 -100 0 -47 -1 -142 0
-213 1 -70 2 -127 1 -127 -2 0 -3 -24 -5 -53 -6 -77 -1 -309 -14 -333 -18 -12
-2 -57 -7 -100 -11 -43 -4 -81 -9 -84 -10 -3 -2 -30 -6 -60 -10 -30 -3 -62 -8
-70 -10 -8 -2 -40 -7 -70 -10 -30 -4 -57 -8 -60 -10 -3 -2 -41 -5 -85 -6 -99
-3 -144 -16 -156 -45 -7 -19 -14 -22 -41 -18 -45 6 -67 -14 -73 -67 -12 -100
-16 -124 -27 -136 -6 -7 -8 -13 -5 -13 5 0 -12 -58 -30 -100 -3 -8 -7 -19 -9
-25 -5 -13 -49 -136 -57 -155 -3 -8 -38 -112 -77 -230 -61 -185 -92 -271 -131
-365 -4 -11 -18 -45 -29 -75 -12 -30 -26 -64 -30 -75 -5 -11 -20 -60 -35 -110
-15 -49 -39 -130 -55 -180 -16 -49 -33 -110 -40 -135 -12 -50 -53 -185 -81
-270 -24 -76 -57 -163 -117 -310 -72 -177 -102 -257 -102 -269 0 -5 -5 -22
-12 -38 -6 -15 -12 -33 -14 -40 -8 -38 -103 -316 -169 -493 -42 -113 -78 -212
-80 -220 -2 -8 -19 -64 -38 -125 -63 -200 -86 -278 -126 -435 -91 -354 -140
-526 -231 -815 -17 -55 -56 -179 -85 -275 -29 -96 -59 -188 -66 -205 -7 -16
-13 -32 -14 -35 -1 -3 -4 -12 -8 -20 -16 -42 -62 -166 -63 -170 0 -3 -3 -12
-7 -20 -3 -8 -23 -65 -44 -127 -20 -61 -39 -110 -41 -109 -1 2 -4 12 -6 22 -2
11 -12 48 -21 84 -23 88 -22 82 -45 200 -41 210 -49 254 -44 262 3 4 1 8 -3 8
-5 0 -15 28 -23 63 -7 34 -14 64 -15 67 -21 73 -28 98 -30 115 -2 11 -8 38
-13 60 -6 22 -13 60 -16 85 -3 25 -7 54 -10 65 -3 11 -7 36 -10 55 -2 19 -10
60 -16 90 -6 30 -14 66 -16 80 -3 14 -12 45 -21 70 -17 52 -43 144 -49 180 -5
25 -13 73 -55 325 -12 72 -38 185 -59 253 -21 67 -57 206 -80 310 -22 103 -45
205 -51 227 -5 22 -11 47 -13 55 -2 8 -6 22 -9 30 -5 14 -74 249 -82 280 -2 8
-10 37 -19 64 -8 27 -13 53 -10 57 2 4 0 9 -4 11 -5 1 -21 48 -36 103 -15 55
-59 194 -97 308 -39 114 -67 213 -63 219 4 6 3 9 -2 5 -9 -5 -108 243 -116
288 -2 11 -6 22 -9 25 -4 3 -23 70 -44 150 -20 80 -52 198 -71 263 -19 66 -34
123 -34 127 0 5 26 16 58 25 106 30 164 87 149 147 -15 59 -129 68 -272 20
-58 -20 -94 -27 -101 -21 -22 18 -122 -2 -161 -32 -20 -16 -42 -30 -49 -30
-17 -2 -25 -4 -44 -12 -8 -4 -82 -23 -165 -42 -82 -20 -157 -38 -165 -40 -150
-41 -444 -134 -564 -180 -95 -36 -276 -122 -298 -142 -15 -14 -18 -14 -23 -1
-11 27 -89 9 -106 -24 -12 -22 -13 -108 -4 -162 3 -15 8 -47 10 -70 2 -22 6
-52 9 -66 3 -14 7 -48 10 -75 3 -28 14 -92 25 -144 11 -51 18 -97 15 -102 -3
-5 -1 -9 4 -9 6 0 12 -15 15 -32 5 -35 69 -294 89 -363 14 -50 64 -186 89
-241 19 -45 78 -219 82 -244 2 -8 5 -19 8 -25 8 -13 31 -108 28 -115 -1 -3 3
-14 9 -26 6 -11 13 -32 16 -45 8 -38 13 -59 34 -144 11 -44 25 -107 32 -140
40 -212 83 -364 200 -698 22 -65 46 -142 51 -170 17 -79 23 -108 73 -301 25
-98 43 -183 40 -187 -3 -5 -1 -9 4 -9 5 0 9 -6 10 -12 0 -7 8 -40 16 -73 9
-33 18 -69 20 -80 2 -11 16 -67 31 -125 15 -58 28 -112 30 -120 2 -8 19 -64
39 -125 108 -329 172 -530 181 -569 1 -6 5 -18 8 -26 22 -57 135 -525 135
-560 -1 -61 35 -201 97 -380 46 -135 53 -156 60 -205 5 -40 20 -124 31 -180 3
-16 22 -72 41 -125 71 -189 102 -280 107 -312 3 -18 10 -51 16 -73 14 -58 13
-64 -15 -60 -14 1 -28 -2 -31 -7 -3 -4 -9 -6 -13 -4 -8 5 -54 -59 -58 -83 -8
-41 7 -77 36 -88 17 -6 35 -7 42 -2 27 17 36 8 67 -58 77 -169 96 -213 143
-325 66 -158 100 -267 93 -302 -4 -22 4 -39 33 -78 21 -27 38 -53 38 -57 0
-21 62 -76 113 -101 67 -32 78 -30 142 29 25 23 57 49 72 59 15 9 35 31 43 48
18 38 18 38 155 63 75 13 141 18 230 16 211 -5 503 -5 545 0 61 6 132 18 252
40 16 3 90 8 166 12 121 5 137 4 137 -10 0 -59 58 -93 105 -63 33 22 33 21 28
-22 -5 -40 17 -79 47 -83 70 -8 77 11 95 246 8 107 13 132 28 157 20 32 29 76
17 83 -18 11 -11 57 24 160 65 187 149 485 163 570 2 17 10 48 18 70 7 22 18
65 24 95 10 48 16 58 46 74 19 11 35 22 35 26 0 4 25 60 55 124 62 131 98 230
121 338 8 40 17 82 20 93 2 11 6 31 9 45 55 283 85 391 155 550 165 379 199
459 223 530 14 41 41 118 60 170 118 318 154 420 151 420 -1 0 8 33 22 73 14
39 27 79 29 88 2 9 19 65 39 125 19 60 40 132 47 159 6 28 13 57 16 65 3 8 7
22 8 30 1 8 5 31 8 50 4 19 9 49 12 65 26 149 75 329 135 493 21 59 53 163 70
232 18 69 52 195 75 280 42 148 61 225 71 280 3 14 9 36 14 50 5 14 18 57 29
95 10 39 24 83 30 99 l12 29 24 -36 c31 -44 34 -83 42 -447 9 -443 7 -509 -11
-539 -4 -6 -15 -67 -22 -126 -2 -16 -6 -194 -9 -395 -4 -321 -12 -452 -31
-541 -17 -82 -16 -114 4 -132 17 -16 19 -27 15 -95 -2 -42 -10 -109 -17 -148
-7 -38 -10 -79 -6 -90 4 -10 6 -26 4 -34 -1 -8 -14 -67 -27 -130 -14 -63 -30
-151 -37 -195 -6 -44 -13 -91 -15 -105 -2 -14 -6 -59 -10 -100 -3 -41 -8 -91
-10 -110 -2 -19 -7 -57 -11 -85 -3 -27 -7 -52 -9 -55 -2 -3 -9 -44 -15 -90 -6
-47 -13 -96 -15 -110 -5 -30 -13 -158 -20 -330 -3 -69 -7 -150 -10 -180 -5
-51 -9 -94 -21 -245 -7 -96 -13 -182 -19 -310 -10 -208 -19 -336 -30 -410 -2
-16 -7 -52 -10 -80 -3 -27 -8 -66 -11 -85 -11 -71 -13 -266 -3 -310 6 -25 23
-70 38 -100 23 -45 28 -66 25 -115 -1 -33 -3 -87 -4 -120 -1 -56 -3 -61 -33
-80 -36 -23 -39 -37 -20 -77 12 -25 24 -33 46 -29 17 3 5 -28 -13 -34 -11 -4
-26 -18 -34 -33 -12 -24 -12 -30 2 -54 10 -17 25 -28 39 -28 12 0 25 -5 28
-11 12 -18 49 -27 72 -16 14 6 25 22 29 43 6 31 9 33 59 39 28 4 97 5 151 2
90 -4 143 1 404 38 19 3 49 9 65 14 106 31 393 63 563 63 51 0 80 -5 98 -17
15 -9 23 -12 20 -6 -4 6 -1 11 6 12 7 0 23 2 35 3 12 1 20 -1 17 -5 -2 -4 0
-10 6 -14 5 -3 10 -3 10 2 0 13 94 12 103 0 5 -9 9 -9 15 1 5 7 22 12 38 10
33 -2 57 9 49 22 -3 5 5 14 17 21 63 33 56 109 -12 124 -18 4 -30 13 -31 23 0
9 -3 37 -7 62 -10 72 -1 578 13 715 5 52 16 135 21 160 3 11 7 35 10 54 3 18
8 43 11 55 3 11 7 113 9 226 2 113 9 246 14 295 11 98 15 156 25 310 4 55 9
103 11 107 3 4 7 49 10 100 6 111 12 193 14 193 1 0 3 21 5 47 2 25 6 64 10
85 3 21 8 110 10 198 3 88 7 176 9 195 3 19 8 56 11 81 3 25 8 56 11 70 3 13
7 94 9 179 4 136 11 239 20 291 4 25 14 119 19 184 23 282 25 346 14 339 -5
-3 -8 0 -8 5 0 6 3 11 8 11 4 0 7 57 7 128 0 75 4 130 10 134 6 5 5 8 -3 8 -7
0 -10 5 -7 10 4 6 8 92 10 193 3 100 7 200 11 222 3 22 6 49 7 59 1 12 13 22
30 27 16 4 34 14 40 23 15 18 187 109 187 99 0 -5 4 -3 8 3 8 11 151 84 166
84 5 0 17 6 25 13 9 7 50 28 91 47 132 59 251 114 465 216 49 23 205 82 235
89 8 2 35 11 59 19 24 9 53 16 65 16 12 0 76 13 142 29 65 16 139 32 164 35
42 6 57 8 128 21 74 13 262 45 297 50 38 5 52 8 115 20 14 3 43 7 65 10 22 3
65 10 95 15 30 6 80 13 110 16 55 6 55 6 33 -13 -15 -13 -19 -23 -12 -34 7
-12 9 -12 9 1 1 23 41 45 80 45 19 -1 67 -5 107 -9 l72 -8 12 -72 c7 -39 12
-74 11 -77 -3 -13 46 -50 64 -50 40 1 50 5 52 20 1 9 3 25 5 36 2 10 -1 37 -8
60 -17 60 -14 70 22 73 22 2 40 -3 54 -17 21 -20 38 -19 73 5 17 12 19 31 22
256 1 134 5 256 7 271 10 55 18 164 22 295 2 73 7 136 9 141 3 5 8 53 11 107
8 144 14 212 23 270 5 28 7 79 6 113 -3 48 0 63 12 68 22 8 14 71 -14 102 -59
68 -77 81 -122 88 -25 4 -49 6 -54 5 -4 -2 -15 5 -22 15 -10 13 -14 14 -12 3
2 -11 -12 -14 -67 -16 -38 0 -78 3 -87 8 -11 5 -18 5 -18 0 0 -5 -42 -9 -92
-10 -51 0 -140 -3 -198 -6 -331 -19 -334 -19 -430 -42 -36 -9 -69 -17 -75 -18
-5 -1 -14 -4 -20 -8 -16 -9 -114 -35 -185 -48 -66 -12 -267 -75 -285 -90 -9
-7 -63 -21 -82 -22 -5 0 -15 -4 -24 -9 -9 -4 -29 -11 -45 -14 -101 -19 -320
-84 -389 -115 -11 -5 -47 -16 -79 -25 -82 -23 -207 -73 -228 -92 -10 -9 -18
-13 -18 -9 0 3 -10 0 -22 -8 -13 -8 -39 -18 -58 -22 -45 -10 -41 -9 -70 -21
-14 -6 -45 -19 -70 -29 -25 -9 -58 -27 -75 -38 -16 -12 -31 -20 -32 -19 -3 3
-35 -10 -146 -61 -75 -34 -79 -35 -84 -16 -3 11 -8 20 -12 20 -11 0 -39 70
-52 129 -6 30 -18 61 -25 68 -9 10 -12 34 -10 81 2 37 5 85 5 108 1 38 4 42
41 57 60 23 75 81 32 130 -23 26 -119 51 -210 56 -13 0 -21 5 -18 9 2 4 -26 7
-64 6 -60 -2 -68 0 -62 15 5 13 3 14 -9 4 -10 -8 -74 -11 -219 -9 -122 1 -233
-3 -275 -10 -92 -16 -218 -40 -278 -53 -26 -6 -80 -14 -120 -17 -40 -3 -78 -7
-86 -10 -10 -3 -12 2 -7 18 12 41 16 61 35 178 11 63 28 135 39 160 11 25 32
72 46 105 15 33 31 69 35 80 5 11 16 37 25 58 9 21 16 42 16 46 0 5 20 51 44
103 24 51 55 127 70 168 14 41 30 84 35 95 5 11 18 43 29 70 59 143 116 271
161 368 28 59 51 111 51 116 0 5 6 21 14 36 8 16 13 49 12 77 -2 40 -7 54 -27
69 -13 10 -28 18 -34 17 -5 0 -32 -4 -60 -7z m3738 -1922 c-4 -15 -8 -17 -14
-8 -8 14 -3 29 11 29 4 0 6 -9 3 -21z m-382 -1142 c-7 -7 -9 -1 -7 19 5 40 8
43 13 15 3 -13 0 -28 -6 -34z m409 -131 c-14 -14 -32 3 -17 18 9 10 14 11 19
2 4 -6 3 -15 -2 -20z m-3449 -3208 c-4 -35 -6 -38 -9 -15 -3 26 3 57 10 57 2
0 1 -19 -1 -42z m116 -390 c-3 -8 -6 -5 -6 6 -1 11 2 17 5 13 3 -3 4 -12 1
-19z m0 -80 c-3 -7 -5 -2 -5 12 0 14 2 19 5 13 2 -7 2 -19 0 -25z m-20 -900
c-3 -8 -6 -5 -6 6 -1 11 2 17 5 13 3 -3 4 -12 1 -19z m1 -117 c-1 -16 -5 -28
-9 -26 -6 5 0 55 7 55 3 0 3 -13 2 -29z m-671 -683 c-3 -7 -5 -2 -5 12 0 14 2
19 5 13 2 -7 2 -19 0 -25z"/>
<path d="M16310 14165 c6 -8 18 -11 26 -8 18 7 13 12 -16 18 -18 3 -20 2 -10
-10z"/>
<path d="M16129 12443 c13 -26 26 -29 37 -10 4 6 3 9 -1 4 -5 -4 -17 1 -28 10
-19 17 -20 17 -8 -4z"/>
<path d="M15967 12439 c7 -7 15 -10 18 -7 3 3 -2 9 -12 12 -14 6 -15 5 -6 -5z"/>
</g>
</svg>
