<?xml version="1.0" standalone="no"?>
<!DOCTYPE svg PUBLIC "-//W3C//DTD SVG 20010904//EN"
 "http://www.w3.org/TR/2001/REC-SVG-20010904/DTD/svg10.dtd">
<svg version="1.0" xmlns="http://www.w3.org/2000/svg"
 width="1285.000000pt" height="1285.000000pt" viewBox="0 0 1285.000000 1285.000000"
 preserveAspectRatio="xMidYMid meet">
<metadata>
Created by potrace 1.14, written by Peter Selinger 2001-2017
</metadata>
<g transform="translate(0.000000,1285.000000) scale(0.100000,-0.100000)"
fill="#000000" stroke="none">
<path d="M7763 10799 c-113 -24 -327 -36 -778 -43 -165 -3 -327 -7 -360 -10
-106 -7 -327 -31 -375 -41 -14 -3 -46 -7 -71 -10 -25 -3 -56 -8 -70 -10 -13
-3 -77 -10 -141 -15 -120 -10 -154 -21 -164 -53 -4 -12 -12 -16 -24 -12 -30
10 -67 -5 -79 -31 -6 -14 -11 -46 -11 -72 0 -30 -16 -94 -46 -177 -25 -71 -63
-182 -85 -245 -22 -63 -42 -121 -44 -128 -2 -7 -4 -13 -4 -15 0 -1 -10 -29
-21 -62 -12 -33 -23 -67 -25 -75 -5 -21 -54 -159 -69 -195 -83 -194 -146 -384
-242 -725 -9 -30 -31 -102 -50 -160 -19 -58 -36 -112 -38 -120 -5 -20 -34 -97
-51 -135 -58 -130 -115 -284 -172 -460 -86 -268 -97 -301 -160 -465 -33 -85
-79 -216 -102 -290 -24 -74 -45 -142 -48 -150 -3 -8 -7 -20 -8 -26 -2 -6 -14
-48 -28 -95 -21 -68 -63 -224 -82 -299 -8 -36 -55 -211 -74 -280 -12 -41 -23
-85 -26 -96 -3 -12 -15 -53 -27 -90 -12 -38 -23 -73 -24 -79 -1 -5 -32 -107
-69 -225 -37 -118 -71 -231 -77 -250 -15 -56 -55 -173 -123 -360 -35 -96 -71
-197 -80 -225 -9 -27 -19 -57 -22 -65 -3 -8 -7 -21 -9 -28 -1 -8 -5 -16 -7
-18 -7 -7 -83 316 -102 431 -8 55 -33 168 -55 250 -21 83 -41 164 -44 180 -3
17 -8 41 -11 55 -11 51 -18 95 -31 190 -4 30 -8 57 -9 60 -1 3 -5 19 -9 35 -4
17 -15 55 -24 85 -9 30 -17 60 -18 65 -1 6 -9 35 -18 65 -16 55 -50 234 -61
326 -3 27 -10 69 -15 94 -5 25 -12 61 -14 80 -3 19 -19 80 -37 135 -29 92 -56
188 -64 225 -2 8 -13 60 -25 115 -11 55 -30 139 -41 188 -12 48 -22 94 -23
100 -2 7 -5 19 -8 27 -3 8 -20 65 -38 125 -168 583 -225 757 -365 1130 -41
108 -51 141 -85 280 -18 72 -34 137 -38 145 -3 8 -6 20 -7 25 -2 6 -11 37 -21
70 -10 33 -19 65 -20 70 -1 6 -5 22 -9 36 -6 23 -2 27 37 39 122 40 168 76
168 134 -1 75 -117 92 -271 39 -61 -21 -93 -27 -109 -21 -38 14 -119 -2 -152
-30 -30 -26 -99 -49 -243 -82 -79 -18 -161 -40 -300 -78 -84 -23 -262 -80
-290 -92 -11 -5 -36 -13 -55 -18 -80 -22 -303 -117 -374 -162 -22 -13 -43 -19
-55 -15 -47 14 -62 13 -85 -9 -20 -18 -25 -33 -27 -82 -1 -32 3 -86 9 -119 6
-33 13 -85 16 -115 3 -30 8 -68 11 -85 4 -16 8 -43 10 -60 3 -27 11 -67 29
-145 3 -14 31 -125 61 -248 51 -203 69 -267 96 -327 32 -74 106 -278 112 -310
2 -11 7 -27 10 -35 8 -21 44 -146 56 -195 5 -22 18 -76 30 -120 18 -70 80
-354 86 -395 1 -8 5 -22 8 -30 3 -8 11 -35 17 -60 12 -46 104 -329 120 -365
33 -79 53 -153 95 -350 2 -11 9 -36 15 -55 6 -19 13 -44 15 -55 17 -78 168
-673 185 -725 88 -272 122 -378 130 -395 8 -18 19 -63 21 -82 0 -5 7 -23 15
-42 8 -18 16 -43 18 -55 3 -11 21 -76 40 -143 20 -66 52 -190 71 -275 39 -168
41 -178 50 -258 3 -30 10 -71 15 -90 5 -19 11 -46 14 -60 2 -14 21 -68 41
-120 37 -94 72 -215 81 -280 19 -133 39 -207 103 -377 34 -88 66 -185 72 -215
6 -29 15 -69 20 -89 13 -53 12 -58 -19 -55 -34 2 -90 -47 -98 -88 -2 -15 0
-43 6 -61 9 -27 17 -34 45 -37 19 -2 35 0 35 4 0 20 32 5 41 -20 13 -36 56
-127 82 -177 12 -22 20 -41 19 -42 -1 -3 20 -56 48 -118 68 -150 111 -288 105
-334 -3 -24 3 -39 24 -64 16 -18 35 -46 44 -62 8 -17 27 -42 41 -56 31 -32
112 -74 137 -72 24 2 196 147 204 173 6 19 23 28 70 36 14 2 53 9 88 16 40 8
194 12 442 13 209 0 391 4 405 8 27 8 52 13 114 22 21 4 48 9 60 11 11 3 83 7
159 10 l137 6 0 -25 c0 -16 10 -34 27 -47 26 -20 38 -21 88 -5 18 5 20 1 20
-39 0 -51 2 -54 44 -66 27 -7 35 -5 56 16 16 16 25 37 26 57 0 18 2 39 3 47 2
8 6 65 10 125 6 86 13 121 32 163 23 49 24 55 11 82 -14 26 -12 36 18 127 81
240 106 329 210 748 1 6 6 24 10 42 5 21 16 35 34 42 15 7 35 30 48 54 101
200 153 341 179 487 3 14 12 54 20 90 9 36 17 76 19 90 2 14 10 55 19 93 9 37
18 82 21 100 13 71 77 249 118 322 6 11 11 22 12 25 0 3 26 63 58 134 59 131
78 173 83 191 7 24 127 353 139 380 26 61 83 224 130 370 142 448 127 394 171
620 14 72 27 141 30 155 11 55 57 205 99 324 42 118 74 234 201 721 55 214 91
334 103 348 14 15 52 -73 57 -131 4 -56 15 -516 17 -702 0 -52 -2 -108 -6
-124 -37 -170 -35 -152 -42 -561 -5 -373 -9 -436 -31 -555 -16 -89 -16 -115 4
-136 17 -18 19 -31 16 -97 -2 -42 -10 -105 -17 -140 -8 -35 -11 -72 -7 -83 4
-10 6 -26 5 -34 -10 -53 -17 -87 -30 -142 -8 -35 -17 -79 -20 -98 -3 -19 -7
-46 -10 -60 -11 -61 -23 -154 -30 -250 -7 -87 -15 -162 -20 -180 -2 -8 -7 -35
-10 -60 -3 -25 -8 -52 -10 -60 -2 -8 -7 -40 -10 -70 -3 -30 -8 -62 -10 -70 -5
-19 -14 -170 -21 -335 -3 -71 -7 -150 -9 -175 -4 -42 -8 -90 -20 -247 -3 -35
-7 -91 -10 -125 -3 -35 -7 -108 -10 -163 -12 -236 -16 -303 -21 -350 -3 -27
-7 -68 -10 -90 -2 -22 -6 -50 -9 -63 -10 -51 -19 -193 -20 -297 0 -113 10
-153 55 -225 19 -30 22 -280 4 -280 -20 0 -54 -34 -59 -58 -4 -23 15 -49 51
-71 18 -10 18 -12 2 -21 -32 -19 -48 -41 -48 -65 0 -23 22 -54 41 -56 18 -3
24 -5 54 -20 17 -9 37 -14 46 -12 17 4 39 43 39 68 0 20 65 27 208 22 118 -3
350 22 442 48 8 2 30 7 49 10 19 3 37 7 40 9 14 8 216 33 258 32 18 -1 33 1
33 4 0 6 15 7 170 11 68 2 113 -2 128 -10 12 -6 27 -9 32 -6 19 11 50 14 50 4
0 -6 5 -7 10 -4 6 3 10 0 10 -7 0 -8 3 -9 8 -3 4 7 43 11 91 10 52 0 90 4 100
12 11 9 12 12 3 13 -7 0 -10 5 -7 10 4 6 10 8 14 5 13 -7 47 27 54 54 9 37
-12 70 -50 77 -18 3 -33 9 -33 13 -1 3 -4 33 -8 66 -14 129 2 693 23 806 3 13
7 41 10 64 6 41 11 72 21 115 5 25 17 306 14 345 -1 11 -2 25 -2 30 -1 22 14
200 18 207 2 3 7 55 9 115 3 59 10 146 15 193 16 143 19 182 25 275 3 50 7
101 10 115 9 46 16 145 20 300 3 85 7 165 9 177 3 12 8 53 11 90 4 37 10 72
13 77 2 5 6 79 8 165 3 150 9 238 19 291 6 30 15 115 20 185 11 171 17 254 20
280 2 17 -2 38 -7 49 -6 10 -6 21 -2 25 5 3 9 59 9 124 0 65 3 121 8 124 5 3
3 9 -4 14 -12 8 -12 10 0 18 10 7 11 13 2 30 -7 12 -8 27 -4 34 4 6 8 73 9
147 1 127 9 233 20 273 3 9 14 17 25 17 10 0 27 9 37 20 17 20 348 188 567
288 61 28 173 80 250 117 156 74 255 116 255 108 0 -3 6 -1 13 4 19 16 174 63
252 78 38 7 95 20 125 28 30 8 84 19 120 25 84 14 237 40 275 47 17 2 73 12
125 21 52 8 106 18 120 20 14 3 41 7 60 9 19 3 44 7 56 10 22 5 84 15 119 20
151 19 142 19 118 -2 -15 -13 -19 -23 -12 -34 7 -11 9 -11 9 -1 0 8 10 22 21
31 22 18 59 20 159 7 76 -9 88 -14 86 -34 -5 -33 25 -137 46 -159 47 -51 119
23 87 88 -5 9 -11 33 -13 53 -4 36 -4 36 33 36 24 0 44 -7 55 -19 21 -23 62
-17 77 12 7 12 12 113 14 261 2 132 6 252 10 266 7 31 13 115 20 280 2 69 6
135 9 147 6 28 19 144 18 161 -3 42 -2 100 1 117 18 82 28 228 17 245 -5 8 -1
21 11 33 24 27 24 69 0 91 -11 10 -22 27 -25 39 -7 25 -82 63 -136 68 -19 2
-41 11 -48 19 -11 13 -12 13 -10 0 3 -12 -23 -15 -172 -17 -397 -4 -656 -26
-775 -65 -72 -23 -64 -21 -200 -51 -114 -26 -243 -64 -260 -77 -9 -6 -68 -28
-100 -37 -5 -1 -53 -13 -105 -27 -52 -14 -108 -28 -125 -31 -34 -7 -44 -9 -65
-18 -8 -3 -44 -15 -80 -27 -36 -12 -74 -25 -85 -29 -11 -5 -71 -25 -133 -45
-62 -19 -150 -53 -195 -75 -45 -22 -113 -49 -150 -61 -56 -18 -243 -100 -319
-141 -10 -5 -25 -9 -33 -9 -8 0 -15 -4 -15 -10 0 -5 -8 -10 -18 -10 -10 0 -23
-5 -29 -11 -7 -7 -17 1 -32 28 -37 63 -39 69 -46 109 -8 50 -25 94 -36 94 -9
0 -4 218 6 228 3 3 15 7 26 9 57 9 84 89 44 133 -22 24 -92 46 -175 56 -33 4
-57 10 -54 15 3 5 -2 9 -10 9 -9 0 -16 -4 -16 -9 0 -6 -12 -6 -27 -2 -16 4
-40 6 -55 5 -22 -2 -26 1 -21 14 6 14 4 15 -8 5 -11 -9 -77 -12 -234 -11 -216
1 -246 -1 -342 -23 -27 -6 -59 -13 -73 -15 -14 -2 -40 -6 -57 -9 -18 -3 -35
-6 -38 -6 -2 0 -19 -5 -37 -10 -18 -6 -73 -13 -122 -16 -83 -5 -89 -5 -82 12
10 28 25 98 31 151 12 95 25 147 56 212 17 37 53 123 80 192 28 69 65 157 83
195 18 39 43 97 55 130 69 188 77 206 211 505 77 170 93 214 95 260 1 48 -2
58 -24 77 -29 25 -39 25 -148 2z m3790 -1915 c-4 -12 -8 -13 -14 -3 -9 15 -2
32 11 24 5 -3 6 -13 3 -21z m-373 -1113 c0 -11 -4 -22 -9 -25 -5 -3 -8 6 -8
19 0 14 3 25 8 25 5 0 9 -9 9 -19z m404 -160 c-2 -2 -10 -1 -19 3 -13 5 -14 8
-3 20 11 12 14 12 19 -3 4 -9 5 -18 3 -20z m-3452 -3191 c-2 -22 -8 -40 -12
-40 -4 0 -5 12 -3 28 10 62 20 71 15 12z m115 -402 c-3 -8 -6 -5 -6 6 -1 11 2
17 5 13 3 -3 4 -12 1 -19z m-20 -980 c-3 -8 -6 -5 -6 6 -1 11 2 17 5 13 3 -3
4 -12 1 -19z m3 -108 c0 -11 -4 -20 -9 -20 -5 0 -7 9 -4 20 3 11 7 20 9 20 2
0 4 -9 4 -20z m-9 -53 c-10 -9 -11 -8 -5 6 3 10 9 15 12 12 3 -3 0 -11 -7 -18z"/>
<path d="M11420 9205 c6 -8 18 -11 26 -8 18 7 13 12 -16 18 -18 3 -20 2 -10
-10z"/>
<path d="M11239 7483 c13 -26 26 -29 37 -10 4 6 3 9 -1 4 -5 -4 -17 1 -28 10
-19 17 -20 17 -8 -4z"/>
<path d="M11077 7479 c7 -7 15 -10 18 -7 3 3 -2 9 -12 12 -14 6 -15 5 -6 -5z"/>
</g>
</svg>
